<svg width="45" height="38" viewBox="0 0 45 38" fill="none" xmlns="http://www.w3.org/2000/svg">
<path d="M1 32.5C1 30.1131 2.13259 27.8239 4.1486 26.136C6.16462 24.4482 8.89892 23.5 11.75 23.5H33.25C36.1011 23.5 38.8354 24.4482 40.8514 26.136C42.8674 27.8239 44 30.1131 44 32.5C44 33.6935 43.4337 34.8381 42.4257 35.682C41.4177 36.5259 40.0505 37 38.625 37H6.375C4.94946 37 3.58231 36.5259 2.5743 35.682C1.56629 34.8381 1 33.6935 1 32.5Z" stroke="black" stroke-width="2" stroke-linejoin="round"/>
<path d="M22.4961 14.5C26.9489 14.5 30.5586 11.4779 30.5586 7.75C30.5586 4.02208 26.9489 1 22.4961 1C18.0433 1 14.4336 4.02208 14.4336 7.75C14.4336 11.4779 18.0433 14.5 22.4961 14.5Z" stroke="black" stroke-width="2"/>
</svg>
