<svg width="7" height="10" viewBox="0 0 7 10" fill="none" xmlns="http://www.w3.org/2000/svg">
<path fill-rule="evenodd" clip-rule="evenodd" d="M1.27899 0.293153C1.46676 0.105447 1.72138 0 1.98688 0C2.25237 0 2.507 0.105447 2.69476 0.293153L6.69977 4.29816C6.88747 4.48592 6.99292 4.74055 6.99292 5.00604C6.99292 5.27154 6.88747 5.52617 6.69977 5.71393L2.69476 9.71894C2.50592 9.90132 2.25301 10.0022 1.99048 9.99996C1.72796 9.99768 1.47683 9.89238 1.29119 9.70674C1.10555 9.5211 1.00025 9.26997 0.997968 9.00745C0.995686 8.74492 1.09661 8.49201 1.27899 8.30317L4.57611 5.00604L1.27899 1.70892C1.09129 1.52116 0.98584 1.26653 0.98584 1.00104C0.98584 0.735542 1.09129 0.480915 1.27899 0.293153Z" fill="#010710"/>
</svg>
