<svg width="6" height="10" viewBox="0 0 6 10" fill="none" xmlns="http://www.w3.org/2000/svg">
<path fill-rule="evenodd" clip-rule="evenodd" d="M0.286073 0.293153C0.473835 0.105447 0.728462 0 0.993958 0C1.25945 0 1.51408 0.105447 1.70184 0.293153L5.70685 4.29816C5.89455 4.48592 6 4.74055 6 5.00604C6 5.27154 5.89455 5.52617 5.70685 5.71393L1.70184 9.71894C1.513 9.90132 1.26009 10.0022 0.997561 9.99996C0.735036 9.99768 0.48391 9.89238 0.298269 9.70674C0.112629 9.5211 0.00732897 9.26997 0.0050477 9.00745C0.00276643 8.74492 0.103687 8.49201 0.286073 8.30317L3.58319 5.00604L0.286073 1.70892C0.0983673 1.52116 -0.00708008 1.26653 -0.00708008 1.00104C-0.00708008 0.735542 0.0983673 0.480915 0.286073 0.293153Z" fill="white"/>
</svg>
