<svg width="24" height="24" viewBox="0 0 24 24" fill="none" xmlns="http://www.w3.org/2000/svg">
<path d="M4.432 6.132C4.099 6.482 4 6.773 4 7C4 7.227 4.1 7.518 4.432 7.868C4.769 8.222 5.304 8.587 6.042 8.915C7.516 9.569 9.622 10 12 10C14.379 10 16.484 9.57 17.958 8.915C18.696 8.587 19.231 8.222 19.568 7.868C19.901 7.518 20 7.227 20 7C20 6.773 19.9 6.482 19.568 6.132C19.231 5.778 18.696 5.413 17.958 5.085C16.484 4.431 14.378 4 12 4C9.621 4 7.516 4.43 6.042 5.085C5.304 5.413 4.769 5.778 4.432 6.132ZM20 10.08C19.625 10.326 19.21 10.546 18.77 10.742C16.986 11.535 14.592 12 12 12C9.408 12 7.014 11.535 5.23 10.742C4.8029 10.5547 4.39157 10.3333 4 10.08V12C4 12.227 4.1 12.518 4.432 12.868C4.769 13.222 5.304 13.587 6.042 13.915C7.516 14.57 9.622 15 12 15C14.379 15 16.484 14.57 17.958 13.915C18.696 13.587 19.231 13.222 19.568 12.868C19.901 12.518 20 12.227 20 12V10.08ZM20 15.08C19.625 15.326 19.21 15.546 18.77 15.742C16.986 16.535 14.592 17 12 17C9.408 17 7.014 16.535 5.23 15.742C4.8029 15.5547 4.39157 15.3333 4 15.08V17C4 17.227 4.1 17.518 4.432 17.868C4.769 18.222 5.304 18.587 6.042 18.915C7.516 19.57 9.622 20 12 20C14.379 20 16.484 19.57 17.958 18.915C18.696 18.587 19.231 18.222 19.568 17.868C19.901 17.518 20 17.227 20 17V15.08ZM22 17C22 17.878 21.596 18.639 21.017 19.246C20.444 19.849 19.661 20.346 18.77 20.742C16.986 21.535 14.592 22 12 22C9.408 22 7.014 21.535 5.23 20.742C4.34 20.346 3.556 19.849 2.983 19.246C2.404 18.64 2 17.878 2 17V7C2 6.122 2.404 5.362 2.983 4.754C3.556 4.151 4.339 3.654 5.23 3.258C7.014 2.465 9.408 2 12 2C14.592 2 16.986 2.465 18.77 3.258C19.66 3.654 20.444 4.151 21.017 4.754C21.596 5.362 22 6.122 22 7V17Z" fill="white"/>
</svg>
