<svg width="26" height="22" viewBox="0 0 26 22" fill="none" xmlns="http://www.w3.org/2000/svg">
<path d="M1 4.9999L10.7979 11.8584C11.5913 12.4138 11.988 12.6915 12.4195 12.7991C12.8007 12.8941 13.1993 12.8941 13.5805 12.7991C14.012 12.6915 14.4087 12.4138 15.2021 11.8584L25 4.9999M6.76 20.5999H19.24C21.2562 20.5999 22.2643 20.5999 23.0344 20.2075C23.7117 19.8624 24.2625 19.3116 24.6076 18.6343C25 17.8642 25 16.8561 25 14.8399V7.1599C25 5.14371 25 4.13562 24.6076 3.36554C24.2625 2.68815 23.7117 2.13742 23.0344 1.79228C22.2643 1.3999 21.2562 1.3999 19.24 1.3999H6.76C4.74381 1.3999 3.73572 1.3999 2.96563 1.79228C2.28825 2.13742 1.73752 2.68815 1.39238 3.36554C1 4.13562 1 5.14371 1 7.1599V14.8399C1 16.8561 1 17.8642 1.39238 18.6343C1.73752 19.3116 2.28825 19.8624 2.96563 20.2075C3.73572 20.5999 4.74381 20.5999 6.76 20.5999Z" stroke="white" stroke-width="2" stroke-linecap="round" stroke-linejoin="round"/>
</svg>
