<svg width="424" height="424" viewBox="0 0 424 424" fill="none" xmlns="http://www.w3.org/2000/svg">
<g clip-path="url(#clip0_4077_2188)">
<mask id="mask0_4077_2188" style="mask-type:luminance" maskUnits="userSpaceOnUse" x="0" y="0" width="424" height="424">
<path d="M0 424H424V0H0V424Z" fill="white"/>
</mask>
<g mask="url(#mask0_4077_2188)">
<g opacity="0.4">
<path opacity="0.8" d="M0.499908 242.267C-99.04 242.267 -179.733 322.96 -179.733 422.5C-179.733 522.04 -99.04 602.733 0.499908 602.733C100.04 602.733 180.733 522.04 180.733 422.5C180.733 322.96 100.04 242.267 0.499908 242.267Z" stroke="#5985C3"/>
<path opacity="0.6" d="M0.500046 181.825C-132.421 181.825 -240.175 289.579 -240.175 422.5C-240.175 555.421 -132.421 663.175 0.500046 663.175C133.421 663.175 241.175 555.421 241.175 422.5C241.175 289.579 133.421 181.825 0.500046 181.825Z" stroke="#5985C3"/>
<path opacity="0.4" d="M0.5 120.198C-166.457 120.198 -301.802 255.543 -301.802 422.5C-301.802 589.457 -166.457 724.802 0.5 724.802C167.457 724.802 302.802 589.457 302.802 422.5C302.802 255.543 167.457 120.198 0.5 120.198Z" stroke="#5985C3"/>
<path opacity="0.2" d="M0.500122 60.9419C-199.183 60.9419 -361.058 222.817 -361.058 422.5C-361.058 622.183 -199.183 784.058 0.500122 784.058C200.183 784.058 362.058 622.183 362.058 422.5C362.058 222.817 200.183 60.9419 0.500122 60.9419Z" stroke="#5985C3"/>
<path opacity="0.1" d="M0.5 0.5C-232.564 0.5 -421.5 189.436 -421.5 422.5C-421.5 655.564 -232.564 844.5 0.5 844.5C233.564 844.5 422.5 655.564 422.5 422.5C422.5 189.436 233.564 0.5 0.5 0.5Z" stroke="#5985C3"/>
<path d="M-0.0929565 292.043C-72.4699 292.043 -131.143 350.716 -131.143 423.093C-131.143 495.469 -72.4699 554.143 -0.0929565 554.143C72.284 554.143 130.957 495.469 130.957 423.093C130.957 350.716 72.284 292.043 -0.0929565 292.043Z" stroke="#5985C3"/>
</g>
</g>
</g>
<defs>
<clipPath id="clip0_4077_2188">
<rect width="424" height="424" fill="white" transform="matrix(-1 0 0 -1 424 424)"/>
</clipPath>
</defs>
</svg>
