<svg width="169" height="32" viewBox="0 0 169 32" fill="none" xmlns="http://www.w3.org/2000/svg">
<g clip-path="url(#clip0_2_13)">
<path d="M4.89072 32H0V21.4504H4.89072V32Z" fill="#09479D"/>
<path d="M14.6722 32H9.78145V8.79093H14.6722V32Z" fill="#09479D"/>
<path d="M24.4536 32H19.5629V0H24.4536V32Z" fill="#09479D"/>
<path d="M29.3443 31.5892V7.62463H36.876C39.2269 7.62463 41.3038 8.13816 43.1068 9.16521C44.9327 10.1694 46.3592 11.5731 47.3862 13.3761C48.4361 15.1792 48.961 17.2561 48.961 19.6069C48.961 21.9349 48.4361 24.0004 47.3862 25.8035C46.3592 27.6065 44.9327 29.0215 43.1068 30.0486C41.3038 31.0757 39.2269 31.5892 36.876 31.5892H29.3443ZM33.3156 27.8918H36.876C37.9944 27.8918 39.0443 27.6864 40.0257 27.2756C41.0071 26.8419 41.863 26.2485 42.5933 25.4953C43.3237 24.7422 43.8942 23.8635 44.3051 22.8592C44.7159 21.855 44.9213 20.7709 44.9213 19.6069C44.9213 18.4429 44.7159 17.3588 44.3051 16.3546C43.8942 15.3503 43.3237 14.4716 42.5933 13.7185C41.863 12.9653 41.0071 12.3833 40.0257 11.9725C39.0443 11.5388 37.9944 11.322 36.876 11.322H33.3156V27.8918Z" fill="url(#paint0_linear_2_13)"/>
<path d="M62.8712 31.5892L62.7 28.3711V22.7908C62.7 21.6268 62.5745 20.6568 62.3234 19.8808C62.0952 19.082 61.7072 18.4771 61.1594 18.0663C60.6345 17.6327 59.9269 17.4159 59.0368 17.4159C58.2152 17.4159 57.4963 17.587 56.88 17.9294C56.2638 18.2717 55.7389 18.8081 55.3052 19.5384L51.9502 18.306C52.3153 17.5528 52.7946 16.8567 53.388 16.2176C54.0043 15.5558 54.7689 15.0308 55.6818 14.6428C56.6176 14.2548 57.7359 14.0608 59.0368 14.0608C60.7029 14.0608 62.0952 14.3918 63.2135 15.0536C64.3319 15.6927 65.1535 16.617 65.6784 17.8267C66.2262 19.0363 66.5001 20.497 66.5001 22.2088L66.3974 31.5892H62.8712ZM57.9413 32C55.8872 32 54.2896 31.5435 53.1484 30.6306C52.0301 29.7177 51.4709 28.4281 51.4709 26.762C51.4709 24.9818 52.0643 23.6238 53.2511 22.6881C54.4607 21.7523 56.1383 21.2844 58.2837 21.2844H62.8712V24.2286H59.5161C57.987 24.2286 56.9143 24.4455 56.298 24.8791C55.6818 25.2899 55.3737 25.8833 55.3737 26.6593C55.3737 27.3212 55.6362 27.8461 56.1611 28.2341C56.7088 28.5993 57.462 28.7819 58.4206 28.7819C59.2879 28.7819 60.0411 28.5879 60.6801 28.1999C61.3192 27.8119 61.8099 27.2984 62.1522 26.6593C62.5174 26.0203 62.7 25.3013 62.7 24.5025H63.8297C63.8297 26.8305 63.3619 28.6678 62.4261 30.0144C61.4903 31.3381 59.9954 32 57.9413 32Z" fill="url(#paint1_linear_2_13)"/>
<path d="M77.1956 32C75.3925 32 74.0117 31.5549 73.0531 30.6648C72.1174 29.7519 71.6495 28.451 71.6495 26.762V9.13098H75.4496V26.0431C75.4496 26.8419 75.6322 27.4467 75.9974 27.8576C76.3854 28.2684 76.9445 28.4738 77.6749 28.4738C77.9031 28.4738 78.1542 28.4281 78.4281 28.3368C78.7019 28.2456 79.01 28.0744 79.3524 27.8233L80.756 30.7333C80.1626 31.1441 79.5692 31.4522 78.9758 31.6576C78.3824 31.8859 77.789 32 77.1956 32ZM68.808 17.7582V14.4716H80.0713V17.7582H68.808Z" fill="url(#paint2_linear_2_13)"/>
<path d="M94.0304 31.5892L93.8592 28.3711V22.7908C93.8592 21.6268 93.7337 20.6568 93.4827 19.8808C93.2544 19.082 92.8664 18.4771 92.3187 18.0663C91.7937 17.6327 91.0862 17.4159 90.1961 17.4159C89.3744 17.4159 88.6555 17.587 88.0393 17.9294C87.423 18.2717 86.8981 18.8081 86.4645 19.5384L83.1094 18.306C83.4746 17.5528 83.9539 16.8567 84.5473 16.2176C85.1635 15.5558 85.9281 15.0308 86.841 14.6428C87.7768 14.2548 88.8952 14.0608 90.1961 14.0608C91.8622 14.0608 93.2544 14.3918 94.3728 15.0536C95.4911 15.6927 96.3128 16.617 96.8377 17.8267C97.3854 19.0363 97.6593 20.497 97.6593 22.2088L97.5566 31.5892H94.0304ZM89.1006 32C87.0465 32 85.4488 31.5435 84.3077 30.6306C83.1893 29.7177 82.6301 28.4281 82.6301 26.762C82.6301 24.9818 83.2235 23.6238 84.4104 22.6881C85.62 21.7523 87.2975 21.2844 89.4429 21.2844H94.0304V24.2286H90.6754C89.1462 24.2286 88.0735 24.4455 87.4573 24.8791C86.8411 25.2899 86.5329 25.8833 86.5329 26.6593C86.5329 27.3212 86.7954 27.8461 87.3203 28.2341C87.8681 28.5993 88.6213 28.7819 89.5798 28.7819C90.4471 28.7819 91.2003 28.5879 91.8394 28.1999C92.4784 27.8119 92.9691 27.2984 93.3115 26.6593C93.6766 26.0203 93.8592 25.3013 93.8592 24.5025H94.989C94.989 26.8305 94.5211 28.6678 93.5854 30.0144C92.6496 31.3381 91.1547 32 89.1006 32Z" fill="url(#paint3_linear_2_13)"/>
<path d="M102.261 31.5892V7.62463H110.717C112.36 7.62463 113.81 7.95557 115.065 8.61745C116.32 9.27933 117.302 10.2037 118.009 11.3905C118.717 12.5545 119.07 13.9125 119.07 15.4645C119.07 16.9708 118.739 18.3174 118.078 19.5042C117.416 20.691 116.491 21.6268 115.305 22.3115C114.141 22.9734 112.783 23.3043 111.231 23.3043H106.232V31.5892H102.261ZM106.232 19.6411H111.162C112.303 19.6411 113.239 19.2531 113.969 18.4771C114.7 17.7012 115.065 16.6969 115.065 15.4645C115.065 14.2092 114.654 13.1935 113.832 12.4175C113.011 11.6416 111.95 11.2536 110.649 11.2536H106.232V19.6411Z" fill="url(#paint4_linear_2_13)"/>
<path d="M122.109 31.5892V14.4716H125.909V31.5892H122.109ZM124.026 11.2193C123.41 11.2193 122.873 11.0025 122.417 10.5689C121.983 10.1124 121.766 9.57603 121.766 8.9598C121.766 8.34357 121.983 7.81863 122.417 7.38499C122.873 6.95135 123.41 6.73452 124.026 6.73452C124.642 6.73452 125.167 6.95135 125.601 7.38499C126.057 7.81863 126.285 8.34357 126.285 8.9598C126.285 9.57603 126.057 10.1124 125.601 10.5689C125.167 11.0025 124.642 11.2193 124.026 11.2193Z" fill="url(#paint5_linear_2_13)"/>
<path d="M130.428 31.5892V7.62463H134.262V31.5892H130.428Z" fill="url(#paint6_linear_2_13)"/>
<path d="M146.393 32C144.681 32 143.152 31.6234 141.805 30.8702C140.481 30.0942 139.443 29.033 138.69 27.6864C137.937 26.3398 137.56 24.7878 137.56 23.0304C137.56 21.273 137.925 19.721 138.656 18.3744C139.409 17.0279 140.447 15.978 141.771 15.2248C143.095 14.4488 144.612 14.0608 146.324 14.0608C148.036 14.0608 149.554 14.4488 150.877 15.2248C152.201 15.978 153.228 17.0279 153.959 18.3744C154.712 19.721 155.088 21.273 155.088 23.0304C155.088 24.7878 154.723 26.3398 153.993 27.6864C153.262 29.033 152.235 30.0942 150.912 30.8702C149.588 31.6234 148.082 32 146.393 32ZM146.393 28.4738C147.328 28.4738 148.161 28.2456 148.892 27.7891C149.622 27.3098 150.193 26.6707 150.604 25.8719C151.014 25.0503 151.22 24.1031 151.22 23.0304C151.22 21.9577 151.003 21.022 150.569 20.2231C150.159 19.4015 149.588 18.7624 148.858 18.306C148.127 17.8267 147.283 17.587 146.324 17.587C145.366 17.587 144.521 17.8153 143.791 18.2717C143.06 18.7282 142.49 19.3673 142.079 20.1889C141.668 21.0105 141.463 21.9577 141.463 23.0304C141.463 24.1031 141.668 25.0503 142.079 25.8719C142.513 26.6707 143.095 27.3098 143.825 27.7891C144.578 28.2456 145.434 28.4738 146.393 28.4738Z" fill="url(#paint7_linear_2_13)"/>
<path d="M165.224 32C163.421 32 162.04 31.5549 161.081 30.6648C160.146 29.7519 159.678 28.451 159.678 26.762V9.13098H163.478V26.0431C163.478 26.8419 163.66 27.4467 164.026 27.8576C164.414 28.2684 164.973 28.4738 165.703 28.4738C165.931 28.4738 166.182 28.4281 166.456 28.3368C166.73 28.2456 167.038 28.0744 167.381 27.8233L168.784 30.7333C168.191 31.1441 167.597 31.4522 167.004 31.6576C166.411 31.8859 165.817 32 165.224 32ZM156.836 17.7582V14.4716H168.1V17.7582H156.836Z" fill="url(#paint8_linear_2_13)"/>
</g>
<defs>
<linearGradient id="paint0_linear_2_13" x1="29.3443" y1="19.3673" x2="168.784" y2="19.3673" gradientUnits="userSpaceOnUse">
<stop stop-color="#09479D"/>
<stop offset="0.5" stop-color="#010710"/>
</linearGradient>
<linearGradient id="paint1_linear_2_13" x1="29.3443" y1="19.3673" x2="168.784" y2="19.3673" gradientUnits="userSpaceOnUse">
<stop stop-color="#09479D"/>
<stop offset="0.5" stop-color="#010710"/>
</linearGradient>
<linearGradient id="paint2_linear_2_13" x1="29.3443" y1="19.3673" x2="168.784" y2="19.3673" gradientUnits="userSpaceOnUse">
<stop stop-color="#09479D"/>
<stop offset="0.5" stop-color="#010710"/>
</linearGradient>
<linearGradient id="paint3_linear_2_13" x1="29.3443" y1="19.3673" x2="168.784" y2="19.3673" gradientUnits="userSpaceOnUse">
<stop stop-color="#09479D"/>
<stop offset="0.5" stop-color="#010710"/>
</linearGradient>
<linearGradient id="paint4_linear_2_13" x1="29.3443" y1="19.3673" x2="168.784" y2="19.3673" gradientUnits="userSpaceOnUse">
<stop stop-color="#09479D"/>
<stop offset="0.5" stop-color="#010710"/>
</linearGradient>
<linearGradient id="paint5_linear_2_13" x1="29.3443" y1="19.3673" x2="168.784" y2="19.3673" gradientUnits="userSpaceOnUse">
<stop stop-color="#09479D"/>
<stop offset="0.5" stop-color="#010710"/>
</linearGradient>
<linearGradient id="paint6_linear_2_13" x1="29.3443" y1="19.3673" x2="168.784" y2="19.3673" gradientUnits="userSpaceOnUse">
<stop stop-color="#09479D"/>
<stop offset="0.5" stop-color="#010710"/>
</linearGradient>
<linearGradient id="paint7_linear_2_13" x1="29.3443" y1="19.3673" x2="168.784" y2="19.3673" gradientUnits="userSpaceOnUse">
<stop stop-color="#09479D"/>
<stop offset="0.5" stop-color="#010710"/>
</linearGradient>
<linearGradient id="paint8_linear_2_13" x1="29.3443" y1="19.3673" x2="168.784" y2="19.3673" gradientUnits="userSpaceOnUse">
<stop stop-color="#09479D"/>
<stop offset="0.5" stop-color="#010710"/>
</linearGradient>
<clipPath id="clip0_2_13">
<rect width="168.78" height="32" fill="white"/>
</clipPath>
</defs>
</svg>
