<svg width="48" height="48" viewBox="0 0 48 48" fill="none" xmlns="http://www.w3.org/2000/svg">
<rect width="48" height="48" fill="url(#paint0_linear_4077_2203)"/>
<path d="M31.6456 16.3665C31.5333 16.254 31.4 16.1648 31.2532 16.1039C31.1064 16.043 30.949 16.0116 30.79 16.0116C30.6311 16.0116 30.4737 16.043 30.3269 16.1039C30.1801 16.1648 30.0467 16.254 29.9344 16.3665L24 22.2888L18.0656 16.3544C17.9532 16.242 17.8198 16.1529 17.673 16.0921C17.5262 16.0313 17.3689 16 17.21 16C17.0511 16 16.8937 16.0313 16.7469 16.0921C16.6001 16.1529 16.4667 16.242 16.3544 16.3544C16.242 16.4667 16.1529 16.6001 16.0921 16.7469C16.0313 16.8937 16 17.0511 16 17.21C16 17.3689 16.0313 17.5262 16.0921 17.673C16.1529 17.8198 16.242 17.9532 16.3544 18.0656L22.2888 24L16.3544 29.9344C16.242 30.0468 16.1529 30.1802 16.0921 30.327C16.0313 30.4738 16 30.6311 16 30.79C16 30.9489 16.0313 31.1063 16.0921 31.2531C16.1529 31.3999 16.242 31.5333 16.3544 31.6456C16.4667 31.758 16.6001 31.8471 16.7469 31.9079C16.8937 31.9687 17.0511 32 17.21 32C17.3689 32 17.5262 31.9687 17.673 31.9079C17.8198 31.8471 17.9532 31.758 18.0656 31.6456L24 25.7112L29.9344 31.6456C30.0468 31.758 30.1802 31.8471 30.327 31.9079C30.4738 31.9687 30.6311 32 30.79 32C30.9489 32 31.1063 31.9687 31.2531 31.9079C31.3999 31.8471 31.5333 31.758 31.6456 31.6456C31.758 31.5333 31.8471 31.3999 31.9079 31.2531C31.9687 31.1063 32 30.9489 32 30.79C32 30.6311 31.9687 30.4738 31.9079 30.327C31.8471 30.1802 31.758 30.0468 31.6456 29.9344L25.7112 24L31.6456 18.0656C32.1068 17.6044 32.1068 16.8277 31.6456 16.3665Z" fill="white"/>
<defs>
<linearGradient id="paint0_linear_4077_2203" x1="0" y1="24" x2="48" y2="24" gradientUnits="userSpaceOnUse">
<stop stop-color="#020E1F"/>
<stop offset="1" stop-color="#09479D"/>
</linearGradient>
</defs>
</svg>
