<svg width="48" height="48" viewBox="0 0 48 48" fill="none" xmlns="http://www.w3.org/2000/svg">
<rect width="48" height="48" fill="white"/>
<path fill-rule="evenodd" clip-rule="evenodd" d="M37.7144 20.5714C37.7144 20.1168 37.5337 19.6807 37.2123 19.3592C36.8908 19.0378 36.4547 18.8571 36.0001 18.8571H18.3292C17.8746 18.8571 17.4385 19.0378 17.117 19.3592C16.7955 19.6807 16.6149 20.1168 16.6149 20.5714C16.6149 21.0261 16.7955 21.4621 17.117 21.7836C17.4385 22.1051 17.8746 22.2857 18.3292 22.2857H36.0001C36.4547 22.2857 36.8908 22.1051 37.2123 21.7836C37.5337 21.4621 37.7144 21.0261 37.7144 20.5714ZM37.7144 13.7143C37.7144 13.2596 37.5337 12.8236 37.2123 12.5021C36.8908 12.1806 36.4547 12 36.0001 12H12.0001C11.5454 12 11.1094 12.1806 10.7879 12.5021C10.4664 12.8236 10.2858 13.2596 10.2858 13.7143C10.2858 14.1689 10.4664 14.605 10.7879 14.9265C11.1094 15.248 11.5454 15.4286 12.0001 15.4286H36.0001C36.4547 15.4286 36.8908 15.248 37.2123 14.9265C37.5337 14.605 37.7144 14.1689 37.7144 13.7143ZM37.7144 27.4286C37.7144 26.9739 37.5337 26.5379 37.2123 26.2164C36.8908 25.8949 36.4547 25.7143 36.0001 25.7143H12.0001C11.5454 25.7143 11.1094 25.8949 10.7879 26.2164C10.4664 26.5379 10.2858 26.9739 10.2858 27.4286C10.2858 27.8832 10.4664 28.3193 10.7879 28.6408C11.1094 28.9622 11.5454 29.1429 12.0001 29.1429H36.0001C36.4547 29.1429 36.8908 28.9622 37.2123 28.6408C37.5337 28.3193 37.7144 27.8832 37.7144 27.4286ZM37.7144 34.2857C37.7144 33.8311 37.5337 33.395 37.2123 33.0735C36.8908 32.752 36.4547 32.5714 36.0001 32.5714H18.3292C17.8746 32.5714 17.4385 32.752 17.117 33.0735C16.7955 33.395 16.6149 33.8311 16.6149 34.2857C16.6149 34.7404 16.7955 35.1764 17.117 35.4979C17.4385 35.8194 17.8746 36 18.3292 36H36.0001C36.4547 36 36.8908 35.8194 37.2123 35.4979C37.5337 35.1764 37.7144 34.7404 37.7144 34.2857Z" fill="#020E1F"/>
</svg>
