<svg width="24" height="24" viewBox="0 0 24 24" fill="none" xmlns="http://www.w3.org/2000/svg">
<path fill-rule="evenodd" clip-rule="evenodd" d="M9.33333 2.4C8.97971 2.4 8.64057 2.52643 8.39052 2.75147C8.14048 2.97652 8 3.28174 8 3.6C8 3.91826 8.14048 4.22348 8.39052 4.44853C8.64057 4.67357 8.97971 4.8 9.33333 4.8H14.6667C15.0203 4.8 15.3594 4.67357 15.6095 4.44853C15.8595 4.22348 16 3.91826 16 3.6C16 3.28174 15.8595 2.97652 15.6095 2.75147C15.3594 2.52643 15.0203 2.4 14.6667 2.4H9.33333ZM9.33333 1.49959e-07C8.50584 -0.000214714 7.69863 0.230471 7.02286 0.660288C6.3471 1.0901 5.83601 1.69791 5.56 2.4H4C2.93913 2.4 1.92172 2.77929 1.17157 3.45442C0.421427 4.12955 0 5.04522 0 6V20.4C0 21.3548 0.421427 22.2705 1.17157 22.9456C1.92172 23.6207 2.93913 24 4 24H20C21.0609 24 22.0783 23.6207 22.8284 22.9456C23.5786 22.2705 24 21.3548 24 20.4V6C24 5.04522 23.5786 4.12955 22.8284 3.45442C22.0783 2.77929 21.0609 2.4 20 2.4H18.44C18.164 1.69791 17.6529 1.0901 16.9771 0.660288C16.3014 0.230471 15.4942 -0.000214714 14.6667 1.49959e-07H9.33333ZM6.66667 9.6C6.31305 9.6 5.97391 9.72643 5.72386 9.95147C5.47381 10.1765 5.33333 10.4817 5.33333 10.8C5.33333 11.1183 5.47381 11.4235 5.72386 11.6485C5.97391 11.8736 6.31305 12 6.66667 12H17.3333C17.687 12 18.0261 11.8736 18.2761 11.6485C18.5262 11.4235 18.6667 11.1183 18.6667 10.8C18.6667 10.4817 18.5262 10.1765 18.2761 9.95147C18.0261 9.72643 17.687 9.6 17.3333 9.6H6.66667ZM6.66667 14.4C6.31305 14.4 5.97391 14.5264 5.72386 14.7515C5.47381 14.9765 5.33333 15.2817 5.33333 15.6C5.33333 15.9183 5.47381 16.2235 5.72386 16.4485C5.97391 16.6736 6.31305 16.8 6.66667 16.8H12C12.3536 16.8 12.6928 16.6736 12.9428 16.4485C13.1929 16.2235 13.3333 15.9183 13.3333 15.6C13.3333 15.2817 13.1929 14.9765 12.9428 14.7515C12.6928 14.5264 12.3536 14.4 12 14.4H6.66667Z" fill="white"/>
</svg>
