<svg width="1440" height="864" viewBox="0 0 1440 864" fill="none" xmlns="http://www.w3.org/2000/svg">
<g clip-path="url(#clip0_4077_1779)">
<rect width="1440" height="864" fill="#EDF2FA"/>
<g opacity="0.12" clip-path="url(#clip1_4077_1779)">
<mask id="mask0_4077_1779" style="mask-type:alpha" maskUnits="userSpaceOnUse" x="0" y="-18" width="1440" height="1130">
<rect width="1440" height="1130" transform="matrix(-1 0 0 1 1440 -18)" fill="url(#paint0_radial_4077_1779)"/>
</mask>
<g mask="url(#mask0_4077_1779)">
<g clip-path="url(#clip2_4077_1779)">
<mask id="path-3-inside-1_4077_1779" fill="white">
<path d="M1488 -18H1392V78H1488V-18Z"/>
</mask>
<path d="M1392 78V79H1391V78H1392ZM1393 -18V78H1391V-18H1393ZM1392 77H1488V79H1392V77Z" fill="#5985C3" mask="url(#path-3-inside-1_4077_1779)"/>
<mask id="path-5-inside-2_4077_1779" fill="white">
<path d="M1392 -18H1296V78H1392V-18Z"/>
</mask>
<path d="M1296 78V79H1295V78H1296ZM1297 -18V78H1295V-18H1297ZM1296 77H1392V79H1296V77Z" fill="#5985C3" mask="url(#path-5-inside-2_4077_1779)"/>
<mask id="path-7-inside-3_4077_1779" fill="white">
<path d="M1296 -18H1200V78H1296V-18Z"/>
</mask>
<path d="M1200 78V79H1199V78H1200ZM1201 -18V78H1199V-18H1201ZM1200 77H1296V79H1200V77Z" fill="#5985C3" mask="url(#path-7-inside-3_4077_1779)"/>
<mask id="path-9-inside-4_4077_1779" fill="white">
<path d="M1200 -18H1104V78H1200V-18Z"/>
</mask>
<path d="M1104 78V79H1103V78H1104ZM1105 -18V78H1103V-18H1105ZM1104 77H1200V79H1104V77Z" fill="#5985C3" mask="url(#path-9-inside-4_4077_1779)"/>
<mask id="path-11-inside-5_4077_1779" fill="white">
<path d="M1104 -18H1008V78H1104V-18Z"/>
</mask>
<path d="M1008 78V79H1007V78H1008ZM1009 -18V78H1007V-18H1009ZM1008 77H1104V79H1008V77Z" fill="#5985C3" mask="url(#path-11-inside-5_4077_1779)"/>
<mask id="path-13-inside-6_4077_1779" fill="white">
<path d="M1008 -18H912V78H1008V-18Z"/>
</mask>
<path d="M912 78V79H911V78H912ZM913 -18V78H911V-18H913ZM912 77H1008V79H912V77Z" fill="#5985C3" mask="url(#path-13-inside-6_4077_1779)"/>
<mask id="path-15-inside-7_4077_1779" fill="white">
<path d="M912 -18H816V78H912V-18Z"/>
</mask>
<path d="M816 78V79H815V78H816ZM817 -18V78H815V-18H817ZM816 77H912V79H816V77Z" fill="#5985C3" mask="url(#path-15-inside-7_4077_1779)"/>
<mask id="path-17-inside-8_4077_1779" fill="white">
<path d="M816 -18H720V78H816V-18Z"/>
</mask>
<path d="M720 78V79H719V78H720ZM721 -18V78H719V-18H721ZM720 77H816V79H720V77Z" fill="#5985C3" mask="url(#path-17-inside-8_4077_1779)"/>
<mask id="path-19-inside-9_4077_1779" fill="white">
<path d="M720 -18H624V78H720V-18Z"/>
</mask>
<path d="M624 78V79H623V78H624ZM625 -18V78H623V-18H625ZM624 77H720V79H624V77Z" fill="#5985C3" mask="url(#path-19-inside-9_4077_1779)"/>
<mask id="path-21-inside-10_4077_1779" fill="white">
<path d="M624 -18H528V78H624V-18Z"/>
</mask>
<path d="M528 78V79H527V78H528ZM529 -18V78H527V-18H529ZM528 77H624V79H528V77Z" fill="#5985C3" mask="url(#path-21-inside-10_4077_1779)"/>
<mask id="path-23-inside-11_4077_1779" fill="white">
<path d="M528 -18H432V78H528V-18Z"/>
</mask>
<path d="M432 78V79H431V78H432ZM433 -18V78H431V-18H433ZM432 77H528V79H432V77Z" fill="#5985C3" mask="url(#path-23-inside-11_4077_1779)"/>
<mask id="path-25-inside-12_4077_1779" fill="white">
<path d="M432 -18H336V78H432V-18Z"/>
</mask>
<path d="M336 78V79H335V78H336ZM337 -18V78H335V-18H337ZM336 77H432V79H336V77Z" fill="#5985C3" mask="url(#path-25-inside-12_4077_1779)"/>
<mask id="path-27-inside-13_4077_1779" fill="white">
<path d="M336 -18H240V78H336V-18Z"/>
</mask>
<path d="M240 78V79H239V78H240ZM241 -18V78H239V-18H241ZM240 77H336V79H240V77Z" fill="#5985C3" mask="url(#path-27-inside-13_4077_1779)"/>
<mask id="path-29-inside-14_4077_1779" fill="white">
<path d="M240 -18H144V78H240V-18Z"/>
</mask>
<path d="M144 78V79H143V78H144ZM145 -18V78H143V-18H145ZM144 77H240V79H144V77Z" fill="#5985C3" mask="url(#path-29-inside-14_4077_1779)"/>
<mask id="path-31-inside-15_4077_1779" fill="white">
<path d="M144 -18H48V78H144V-18Z"/>
</mask>
<path d="M48 78V79H47V78H48ZM49 -18V78H47V-18H49ZM48 77H144V79H48V77Z" fill="#5985C3" mask="url(#path-31-inside-15_4077_1779)"/>
<mask id="path-33-inside-16_4077_1779" fill="white">
<path d="M48 -18H-48V78H48V-18Z"/>
</mask>
<path d="M-48 78V79H-49V78H-48ZM-47 -18V78H-49V-18H-47ZM-48 77H48V79H-48V77Z" fill="#5985C3" mask="url(#path-33-inside-16_4077_1779)"/>
<mask id="path-35-inside-17_4077_1779" fill="white">
<path d="M1488 78H1392V174H1488V78Z"/>
</mask>
<path d="M1392 174V175H1391V174H1392ZM1393 78V174H1391V78H1393ZM1392 173H1488V175H1392V173Z" fill="#5985C3" mask="url(#path-35-inside-17_4077_1779)"/>
<mask id="path-37-inside-18_4077_1779" fill="white">
<path d="M1392 78H1296V174H1392V78Z"/>
</mask>
<path d="M1296 174V175H1295V174H1296ZM1297 78V174H1295V78H1297ZM1296 173H1392V175H1296V173Z" fill="#5985C3" mask="url(#path-37-inside-18_4077_1779)"/>
<mask id="path-39-inside-19_4077_1779" fill="white">
<path d="M1296 78H1200V174H1296V78Z"/>
</mask>
<path d="M1200 174V175H1199V174H1200ZM1201 78V174H1199V78H1201ZM1200 173H1296V175H1200V173Z" fill="#5985C3" mask="url(#path-39-inside-19_4077_1779)"/>
<mask id="path-41-inside-20_4077_1779" fill="white">
<path d="M1200 78H1104V174H1200V78Z"/>
</mask>
<path d="M1200 78H1104V174H1200V78Z" fill="#5985C3"/>
<path d="M1104 174V175H1103V174H1104ZM1105 78V174H1103V78H1105ZM1104 173H1200V175H1104V173Z" fill="#5985C3" mask="url(#path-41-inside-20_4077_1779)"/>
<mask id="path-43-inside-21_4077_1779" fill="white">
<path d="M1104 78H1008V174H1104V78Z"/>
</mask>
<path d="M1008 174V175H1007V174H1008ZM1009 78V174H1007V78H1009ZM1008 173H1104V175H1008V173Z" fill="#5985C3" mask="url(#path-43-inside-21_4077_1779)"/>
<mask id="path-45-inside-22_4077_1779" fill="white">
<path d="M1008 78H912V174H1008V78Z"/>
</mask>
<path d="M912 174V175H911V174H912ZM913 78V174H911V78H913ZM912 173H1008V175H912V173Z" fill="#5985C3" mask="url(#path-45-inside-22_4077_1779)"/>
<mask id="path-47-inside-23_4077_1779" fill="white">
<path d="M912 78H816V174H912V78Z"/>
</mask>
<path d="M816 174V175H815V174H816ZM817 78V174H815V78H817ZM816 173H912V175H816V173Z" fill="#5985C3" mask="url(#path-47-inside-23_4077_1779)"/>
<mask id="path-49-inside-24_4077_1779" fill="white">
<path d="M816 78H720V174H816V78Z"/>
</mask>
<path d="M720 174V175H719V174H720ZM721 78V174H719V78H721ZM720 173H816V175H720V173Z" fill="#5985C3" mask="url(#path-49-inside-24_4077_1779)"/>
<mask id="path-51-inside-25_4077_1779" fill="white">
<path d="M720 78H624V174H720V78Z"/>
</mask>
<path d="M624 174V175H623V174H624ZM625 78V174H623V78H625ZM624 173H720V175H624V173Z" fill="#5985C3" mask="url(#path-51-inside-25_4077_1779)"/>
<mask id="path-53-inside-26_4077_1779" fill="white">
<path d="M624 78H528V174H624V78Z"/>
</mask>
<path d="M528 174V175H527V174H528ZM529 78V174H527V78H529ZM528 173H624V175H528V173Z" fill="#5985C3" mask="url(#path-53-inside-26_4077_1779)"/>
<mask id="path-55-inside-27_4077_1779" fill="white">
<path d="M528 78H432V174H528V78Z"/>
</mask>
<path d="M432 174V175H431V174H432ZM433 78V174H431V78H433ZM432 173H528V175H432V173Z" fill="#5985C3" mask="url(#path-55-inside-27_4077_1779)"/>
<mask id="path-57-inside-28_4077_1779" fill="white">
<path d="M432 78H336V174H432V78Z"/>
</mask>
<path d="M336 174V175H335V174H336ZM337 78V174H335V78H337ZM336 173H432V175H336V173Z" fill="#5985C3" mask="url(#path-57-inside-28_4077_1779)"/>
<mask id="path-59-inside-29_4077_1779" fill="white">
<path d="M336 78H240V174H336V78Z"/>
</mask>
<path d="M336 78H240V174H336V78Z" fill="#5985C3"/>
<path d="M240 174V175H239V174H240ZM241 78V174H239V78H241ZM240 173H336V175H240V173Z" fill="#5985C3" mask="url(#path-59-inside-29_4077_1779)"/>
<mask id="path-61-inside-30_4077_1779" fill="white">
<path d="M240 78H144V174H240V78Z"/>
</mask>
<path d="M144 174V175H143V174H144ZM145 78V174H143V78H145ZM144 173H240V175H144V173Z" fill="#5985C3" mask="url(#path-61-inside-30_4077_1779)"/>
<mask id="path-63-inside-31_4077_1779" fill="white">
<path d="M144 78H48V174H144V78Z"/>
</mask>
<path d="M48 174V175H47V174H48ZM49 78V174H47V78H49ZM48 173H144V175H48V173Z" fill="#5985C3" mask="url(#path-63-inside-31_4077_1779)"/>
<mask id="path-65-inside-32_4077_1779" fill="white">
<path d="M48 78H-48V174H48V78Z"/>
</mask>
<path d="M-48 174V175H-49V174H-48ZM-47 78V174H-49V78H-47ZM-48 173H48V175H-48V173Z" fill="#5985C3" mask="url(#path-65-inside-32_4077_1779)"/>
<mask id="path-67-inside-33_4077_1779" fill="white">
<path d="M1488 174H1392V270H1488V174Z"/>
</mask>
<path d="M1392 270V271H1391V270H1392ZM1393 174V270H1391V174H1393ZM1392 269H1488V271H1392V269Z" fill="#5985C3" mask="url(#path-67-inside-33_4077_1779)"/>
<mask id="path-69-inside-34_4077_1779" fill="white">
<path d="M1392 174H1296V270H1392V174Z"/>
</mask>
<path d="M1296 270V271H1295V270H1296ZM1297 174V270H1295V174H1297ZM1296 269H1392V271H1296V269Z" fill="#5985C3" mask="url(#path-69-inside-34_4077_1779)"/>
<mask id="path-71-inside-35_4077_1779" fill="white">
<path d="M1296 174H1200V270H1296V174Z"/>
</mask>
<path d="M1200 270V271H1199V270H1200ZM1201 174V270H1199V174H1201ZM1200 269H1296V271H1200V269Z" fill="#5985C3" mask="url(#path-71-inside-35_4077_1779)"/>
<mask id="path-73-inside-36_4077_1779" fill="white">
<path d="M1200 174H1104V270H1200V174Z"/>
</mask>
<path d="M1104 270V271H1103V270H1104ZM1105 174V270H1103V174H1105ZM1104 269H1200V271H1104V269Z" fill="#5985C3" mask="url(#path-73-inside-36_4077_1779)"/>
<mask id="path-75-inside-37_4077_1779" fill="white">
<path d="M1104 174H1008V270H1104V174Z"/>
</mask>
<path d="M1008 270V271H1007V270H1008ZM1009 174V270H1007V174H1009ZM1008 269H1104V271H1008V269Z" fill="#5985C3" mask="url(#path-75-inside-37_4077_1779)"/>
<mask id="path-77-inside-38_4077_1779" fill="white">
<path d="M1008 174H912V270H1008V174Z"/>
</mask>
<path d="M1008 174H912V270H1008V174Z" fill="#5985C3"/>
<path d="M912 270V271H911V270H912ZM913 174V270H911V174H913ZM912 269H1008V271H912V269Z" fill="#5985C3" mask="url(#path-77-inside-38_4077_1779)"/>
<mask id="path-79-inside-39_4077_1779" fill="white">
<path d="M912 174H816V270H912V174Z"/>
</mask>
<path d="M816 270V271H815V270H816ZM817 174V270H815V174H817ZM816 269H912V271H816V269Z" fill="#5985C3" mask="url(#path-79-inside-39_4077_1779)"/>
<mask id="path-81-inside-40_4077_1779" fill="white">
<path d="M816 174H720V270H816V174Z"/>
</mask>
<path d="M720 270V271H719V270H720ZM721 174V270H719V174H721ZM720 269H816V271H720V269Z" fill="#5985C3" mask="url(#path-81-inside-40_4077_1779)"/>
<mask id="path-83-inside-41_4077_1779" fill="white">
<path d="M720 174H624V270H720V174Z"/>
</mask>
<path d="M624 270V271H623V270H624ZM625 174V270H623V174H625ZM624 269H720V271H624V269Z" fill="#5985C3" mask="url(#path-83-inside-41_4077_1779)"/>
<mask id="path-85-inside-42_4077_1779" fill="white">
<path d="M624 174H528V270H624V174Z"/>
</mask>
<path d="M624 174H528V270H624V174Z" fill="#5985C3"/>
<path d="M528 270V271H527V270H528ZM529 174V270H527V174H529ZM528 269H624V271H528V269Z" fill="#5985C3" mask="url(#path-85-inside-42_4077_1779)"/>
<mask id="path-87-inside-43_4077_1779" fill="white">
<path d="M528 174H432V270H528V174Z"/>
</mask>
<path d="M432 270V271H431V270H432ZM433 174V270H431V174H433ZM432 269H528V271H432V269Z" fill="#5985C3" mask="url(#path-87-inside-43_4077_1779)"/>
<mask id="path-89-inside-44_4077_1779" fill="white">
<path d="M432 174H336V270H432V174Z"/>
</mask>
<path d="M336 270V271H335V270H336ZM337 174V270H335V174H337ZM336 269H432V271H336V269Z" fill="#5985C3" mask="url(#path-89-inside-44_4077_1779)"/>
<mask id="path-91-inside-45_4077_1779" fill="white">
<path d="M336 174H240V270H336V174Z"/>
</mask>
<path d="M240 270V271H239V270H240ZM241 174V270H239V174H241ZM240 269H336V271H240V269Z" fill="#5985C3" mask="url(#path-91-inside-45_4077_1779)"/>
<mask id="path-93-inside-46_4077_1779" fill="white">
<path d="M240 174H144V270H240V174Z"/>
</mask>
<path d="M144 270V271H143V270H144ZM145 174V270H143V174H145ZM144 269H240V271H144V269Z" fill="#5985C3" mask="url(#path-93-inside-46_4077_1779)"/>
<mask id="path-95-inside-47_4077_1779" fill="white">
<path d="M144 174H48V270H144V174Z"/>
</mask>
<path d="M48 270V271H47V270H48ZM49 174V270H47V174H49ZM48 269H144V271H48V269Z" fill="#5985C3" mask="url(#path-95-inside-47_4077_1779)"/>
<mask id="path-97-inside-48_4077_1779" fill="white">
<path d="M48 174H-48V270H48V174Z"/>
</mask>
<path d="M-48 270V271H-49V270H-48ZM-47 174V270H-49V174H-47ZM-48 269H48V271H-48V269Z" fill="#5985C3" mask="url(#path-97-inside-48_4077_1779)"/>
<mask id="path-99-inside-49_4077_1779" fill="white">
<path d="M1488 270H1392V366H1488V270Z"/>
</mask>
<path d="M1488 270H1392V366H1488V270Z" fill="#5985C3"/>
<path d="M1392 366V367H1391V366H1392ZM1393 270V366H1391V270H1393ZM1392 365H1488V367H1392V365Z" fill="#5985C3" mask="url(#path-99-inside-49_4077_1779)"/>
<mask id="path-101-inside-50_4077_1779" fill="white">
<path d="M1392 270H1296V366H1392V270Z"/>
</mask>
<path d="M1296 366V367H1295V366H1296ZM1297 270V366H1295V270H1297ZM1296 365H1392V367H1296V365Z" fill="#5985C3" mask="url(#path-101-inside-50_4077_1779)"/>
<mask id="path-103-inside-51_4077_1779" fill="white">
<path d="M1296 270H1200V366H1296V270Z"/>
</mask>
<path d="M1200 366V367H1199V366H1200ZM1201 270V366H1199V270H1201ZM1200 365H1296V367H1200V365Z" fill="#5985C3" mask="url(#path-103-inside-51_4077_1779)"/>
<mask id="path-105-inside-52_4077_1779" fill="white">
<path d="M1200 270H1104V366H1200V270Z"/>
</mask>
<path d="M1104 366V367H1103V366H1104ZM1105 270V366H1103V270H1105ZM1104 365H1200V367H1104V365Z" fill="#5985C3" mask="url(#path-105-inside-52_4077_1779)"/>
<mask id="path-107-inside-53_4077_1779" fill="white">
<path d="M1104 270H1008V366H1104V270Z"/>
</mask>
<path d="M1008 366V367H1007V366H1008ZM1009 270V366H1007V270H1009ZM1008 365H1104V367H1008V365Z" fill="#5985C3" mask="url(#path-107-inside-53_4077_1779)"/>
<mask id="path-109-inside-54_4077_1779" fill="white">
<path d="M1008 270H912V366H1008V270Z"/>
</mask>
<path d="M912 366V367H911V366H912ZM913 270V366H911V270H913ZM912 365H1008V367H912V365Z" fill="#5985C3" mask="url(#path-109-inside-54_4077_1779)"/>
<mask id="path-111-inside-55_4077_1779" fill="white">
<path d="M912 270H816V366H912V270Z"/>
</mask>
<path d="M816 366V367H815V366H816ZM817 270V366H815V270H817ZM816 365H912V367H816V365Z" fill="#5985C3" mask="url(#path-111-inside-55_4077_1779)"/>
<mask id="path-113-inside-56_4077_1779" fill="white">
<path d="M816 270H720V366H816V270Z"/>
</mask>
<path d="M720 366V367H719V366H720ZM721 270V366H719V270H721ZM720 365H816V367H720V365Z" fill="#5985C3" mask="url(#path-113-inside-56_4077_1779)"/>
<mask id="path-115-inside-57_4077_1779" fill="white">
<path d="M720 270H624V366H720V270Z"/>
</mask>
<path d="M624 366V367H623V366H624ZM625 270V366H623V270H625ZM624 365H720V367H624V365Z" fill="#5985C3" mask="url(#path-115-inside-57_4077_1779)"/>
<mask id="path-117-inside-58_4077_1779" fill="white">
<path d="M624 270H528V366H624V270Z"/>
</mask>
<path d="M528 366V367H527V366H528ZM529 270V366H527V270H529ZM528 365H624V367H528V365Z" fill="#5985C3" mask="url(#path-117-inside-58_4077_1779)"/>
<mask id="path-119-inside-59_4077_1779" fill="white">
<path d="M528 270H432V366H528V270Z"/>
</mask>
<path d="M432 366V367H431V366H432ZM433 270V366H431V270H433ZM432 365H528V367H432V365Z" fill="#5985C3" mask="url(#path-119-inside-59_4077_1779)"/>
<mask id="path-121-inside-60_4077_1779" fill="white">
<path d="M432 270H336V366H432V270Z"/>
</mask>
<path d="M336 366V367H335V366H336ZM337 270V366H335V270H337ZM336 365H432V367H336V365Z" fill="#5985C3" mask="url(#path-121-inside-60_4077_1779)"/>
<mask id="path-123-inside-61_4077_1779" fill="white">
<path d="M336 270H240V366H336V270Z"/>
</mask>
<path d="M336 270H240V366H336V270Z" fill="#5985C3"/>
<path d="M240 366V367H239V366H240ZM241 270V366H239V270H241ZM240 365H336V367H240V365Z" fill="#5985C3" mask="url(#path-123-inside-61_4077_1779)"/>
<mask id="path-125-inside-62_4077_1779" fill="white">
<path d="M240 270H144V366H240V270Z"/>
</mask>
<path d="M144 366V367H143V366H144ZM145 270V366H143V270H145ZM144 365H240V367H144V365Z" fill="#5985C3" mask="url(#path-125-inside-62_4077_1779)"/>
<mask id="path-127-inside-63_4077_1779" fill="white">
<path d="M144 270H48V366H144V270Z"/>
</mask>
<path d="M48 366V367H47V366H48ZM49 270V366H47V270H49ZM48 365H144V367H48V365Z" fill="#5985C3" mask="url(#path-127-inside-63_4077_1779)"/>
<mask id="path-129-inside-64_4077_1779" fill="white">
<path d="M48 270H-48V366H48V270Z"/>
</mask>
<path d="M-48 366V367H-49V366H-48ZM-47 270V366H-49V270H-47ZM-48 365H48V367H-48V365Z" fill="#5985C3" mask="url(#path-129-inside-64_4077_1779)"/>
<mask id="path-131-inside-65_4077_1779" fill="white">
<path d="M1488 366H1392V462H1488V366Z"/>
</mask>
<path d="M1392 462V463H1391V462H1392ZM1393 366V462H1391V366H1393ZM1392 461H1488V463H1392V461Z" fill="#5985C3" mask="url(#path-131-inside-65_4077_1779)"/>
<mask id="path-133-inside-66_4077_1779" fill="white">
<path d="M1392 366H1296V462H1392V366Z"/>
</mask>
<path d="M1296 462V463H1295V462H1296ZM1297 366V462H1295V366H1297ZM1296 461H1392V463H1296V461Z" fill="#5985C3" mask="url(#path-133-inside-66_4077_1779)"/>
<mask id="path-135-inside-67_4077_1779" fill="white">
<path d="M1296 366H1200V462H1296V366Z"/>
</mask>
<path d="M1200 462V463H1199V462H1200ZM1201 366V462H1199V366H1201ZM1200 461H1296V463H1200V461Z" fill="#5985C3" mask="url(#path-135-inside-67_4077_1779)"/>
<mask id="path-137-inside-68_4077_1779" fill="white">
<path d="M1200 366H1104V462H1200V366Z"/>
</mask>
<path d="M1104 462V463H1103V462H1104ZM1105 366V462H1103V366H1105ZM1104 461H1200V463H1104V461Z" fill="#5985C3" mask="url(#path-137-inside-68_4077_1779)"/>
<mask id="path-139-inside-69_4077_1779" fill="white">
<path d="M1104 366H1008V462H1104V366Z"/>
</mask>
<path d="M1008 462V463H1007V462H1008ZM1009 366V462H1007V366H1009ZM1008 461H1104V463H1008V461Z" fill="#5985C3" mask="url(#path-139-inside-69_4077_1779)"/>
<mask id="path-141-inside-70_4077_1779" fill="white">
<path d="M1008 366H912V462H1008V366Z"/>
</mask>
<path d="M912 462V463H911V462H912ZM913 366V462H911V366H913ZM912 461H1008V463H912V461Z" fill="#5985C3" mask="url(#path-141-inside-70_4077_1779)"/>
<mask id="path-143-inside-71_4077_1779" fill="white">
<path d="M912 366H816V462H912V366Z"/>
</mask>
<path d="M912 366H816V462H912V366Z" fill="#5985C3"/>
<path d="M816 462V463H815V462H816ZM817 366V462H815V366H817ZM816 461H912V463H816V461Z" fill="#5985C3" mask="url(#path-143-inside-71_4077_1779)"/>
<mask id="path-145-inside-72_4077_1779" fill="white">
<path d="M816 366H720V462H816V366Z"/>
</mask>
<path d="M720 462V463H719V462H720ZM721 366V462H719V366H721ZM720 461H816V463H720V461Z" fill="#5985C3" mask="url(#path-145-inside-72_4077_1779)"/>
<mask id="path-147-inside-73_4077_1779" fill="white">
<path d="M720 366H624V462H720V366Z"/>
</mask>
<path d="M624 462V463H623V462H624ZM625 366V462H623V366H625ZM624 461H720V463H624V461Z" fill="#5985C3" mask="url(#path-147-inside-73_4077_1779)"/>
<mask id="path-149-inside-74_4077_1779" fill="white">
<path d="M624 366H528V462H624V366Z"/>
</mask>
<path d="M528 462V463H527V462H528ZM529 366V462H527V366H529ZM528 461H624V463H528V461Z" fill="#5985C3" mask="url(#path-149-inside-74_4077_1779)"/>
<mask id="path-151-inside-75_4077_1779" fill="white">
<path d="M528 366H432V462H528V366Z"/>
</mask>
<path d="M432 462V463H431V462H432ZM433 366V462H431V366H433ZM432 461H528V463H432V461Z" fill="#5985C3" mask="url(#path-151-inside-75_4077_1779)"/>
<mask id="path-153-inside-76_4077_1779" fill="white">
<path d="M432 366H336V462H432V366Z"/>
</mask>
<path d="M336 462V463H335V462H336ZM337 366V462H335V366H337ZM336 461H432V463H336V461Z" fill="#5985C3" mask="url(#path-153-inside-76_4077_1779)"/>
<mask id="path-155-inside-77_4077_1779" fill="white">
<path d="M336 366H240V462H336V366Z"/>
</mask>
<path d="M240 462V463H239V462H240ZM241 366V462H239V366H241ZM240 461H336V463H240V461Z" fill="#5985C3" mask="url(#path-155-inside-77_4077_1779)"/>
<mask id="path-157-inside-78_4077_1779" fill="white">
<path d="M240 366H144V462H240V366Z"/>
</mask>
<path d="M144 462V463H143V462H144ZM145 366V462H143V366H145ZM144 461H240V463H144V461Z" fill="#5985C3" mask="url(#path-157-inside-78_4077_1779)"/>
<mask id="path-159-inside-79_4077_1779" fill="white">
<path d="M144 366H48V462H144V366Z"/>
</mask>
<path d="M48 462V463H47V462H48ZM49 366V462H47V366H49ZM48 461H144V463H48V461Z" fill="#5985C3" mask="url(#path-159-inside-79_4077_1779)"/>
<mask id="path-161-inside-80_4077_1779" fill="white">
<path d="M48 366H-48V462H48V366Z"/>
</mask>
<path d="M-48 462V463H-49V462H-48ZM-47 366V462H-49V366H-47ZM-48 461H48V463H-48V461Z" fill="#5985C3" mask="url(#path-161-inside-80_4077_1779)"/>
<mask id="path-163-inside-81_4077_1779" fill="white">
<path d="M1488 462H1392V558H1488V462Z"/>
</mask>
<path d="M1392 558V559H1391V558H1392ZM1393 462V558H1391V462H1393ZM1392 557H1488V559H1392V557Z" fill="#5985C3" mask="url(#path-163-inside-81_4077_1779)"/>
<mask id="path-165-inside-82_4077_1779" fill="white">
<path d="M1392 462H1296V558H1392V462Z"/>
</mask>
<path d="M1296 558V559H1295V558H1296ZM1297 462V558H1295V462H1297ZM1296 557H1392V559H1296V557Z" fill="#5985C3" mask="url(#path-165-inside-82_4077_1779)"/>
<mask id="path-167-inside-83_4077_1779" fill="white">
<path d="M1296 462H1200V558H1296V462Z"/>
</mask>
<path d="M1200 558V559H1199V558H1200ZM1201 462V558H1199V462H1201ZM1200 557H1296V559H1200V557Z" fill="#5985C3" mask="url(#path-167-inside-83_4077_1779)"/>
<mask id="path-169-inside-84_4077_1779" fill="white">
<path d="M1200 462H1104V558H1200V462Z"/>
</mask>
<path d="M1200 462H1104V558H1200V462Z" fill="#5985C3"/>
<path d="M1104 558V559H1103V558H1104ZM1105 462V558H1103V462H1105ZM1104 557H1200V559H1104V557Z" fill="#5985C3" mask="url(#path-169-inside-84_4077_1779)"/>
<mask id="path-171-inside-85_4077_1779" fill="white">
<path d="M1104 462H1008V558H1104V462Z"/>
</mask>
<path d="M1008 558V559H1007V558H1008ZM1009 462V558H1007V462H1009ZM1008 557H1104V559H1008V557Z" fill="#5985C3" mask="url(#path-171-inside-85_4077_1779)"/>
<mask id="path-173-inside-86_4077_1779" fill="white">
<path d="M1008 462H912V558H1008V462Z"/>
</mask>
<path d="M912 558V559H911V558H912ZM913 462V558H911V462H913ZM912 557H1008V559H912V557Z" fill="#5985C3" mask="url(#path-173-inside-86_4077_1779)"/>
<mask id="path-175-inside-87_4077_1779" fill="white">
<path d="M912 462H816V558H912V462Z"/>
</mask>
<path d="M816 558V559H815V558H816ZM817 462V558H815V462H817ZM816 557H912V559H816V557Z" fill="#5985C3" mask="url(#path-175-inside-87_4077_1779)"/>
<mask id="path-177-inside-88_4077_1779" fill="white">
<path d="M816 462H720V558H816V462Z"/>
</mask>
<path d="M720 558V559H719V558H720ZM721 462V558H719V462H721ZM720 557H816V559H720V557Z" fill="#5985C3" mask="url(#path-177-inside-88_4077_1779)"/>
<mask id="path-179-inside-89_4077_1779" fill="white">
<path d="M720 462H624V558H720V462Z"/>
</mask>
<path d="M624 558V559H623V558H624ZM625 462V558H623V462H625ZM624 557H720V559H624V557Z" fill="#5985C3" mask="url(#path-179-inside-89_4077_1779)"/>
<mask id="path-181-inside-90_4077_1779" fill="white">
<path d="M624 462H528V558H624V462Z"/>
</mask>
<path d="M624 462H528V558H624V462Z" fill="#5985C3"/>
<path d="M528 558V559H527V558H528ZM529 462V558H527V462H529ZM528 557H624V559H528V557Z" fill="#5985C3" mask="url(#path-181-inside-90_4077_1779)"/>
<mask id="path-183-inside-91_4077_1779" fill="white">
<path d="M528 462H432V558H528V462Z"/>
</mask>
<path d="M432 558V559H431V558H432ZM433 462V558H431V462H433ZM432 557H528V559H432V557Z" fill="#5985C3" mask="url(#path-183-inside-91_4077_1779)"/>
<mask id="path-185-inside-92_4077_1779" fill="white">
<path d="M432 462H336V558H432V462Z"/>
</mask>
<path d="M336 558V559H335V558H336ZM337 462V558H335V462H337ZM336 557H432V559H336V557Z" fill="#5985C3" mask="url(#path-185-inside-92_4077_1779)"/>
<mask id="path-187-inside-93_4077_1779" fill="white">
<path d="M336 462H240V558H336V462Z"/>
</mask>
<path d="M240 558V559H239V558H240ZM241 462V558H239V462H241ZM240 557H336V559H240V557Z" fill="#5985C3" mask="url(#path-187-inside-93_4077_1779)"/>
<mask id="path-189-inside-94_4077_1779" fill="white">
<path d="M240 462H144V558H240V462Z"/>
</mask>
<path d="M144 558V559H143V558H144ZM145 462V558H143V462H145ZM144 557H240V559H144V557Z" fill="#5985C3" mask="url(#path-189-inside-94_4077_1779)"/>
<mask id="path-191-inside-95_4077_1779" fill="white">
<path d="M144 462H48V558H144V462Z"/>
</mask>
<path d="M48 558V559H47V558H48ZM49 462V558H47V462H49ZM48 557H144V559H48V557Z" fill="#5985C3" mask="url(#path-191-inside-95_4077_1779)"/>
<mask id="path-193-inside-96_4077_1779" fill="white">
<path d="M48 462H-48V558H48V462Z"/>
</mask>
<path d="M-48 558V559H-49V558H-48ZM-47 462V558H-49V462H-47ZM-48 557H48V559H-48V557Z" fill="#5985C3" mask="url(#path-193-inside-96_4077_1779)"/>
<mask id="path-195-inside-97_4077_1779" fill="white">
<path d="M1488 558H1392V654H1488V558Z"/>
</mask>
<path d="M1392 654V655H1391V654H1392ZM1393 558V654H1391V558H1393ZM1392 653H1488V655H1392V653Z" fill="#5985C3" mask="url(#path-195-inside-97_4077_1779)"/>
<mask id="path-197-inside-98_4077_1779" fill="white">
<path d="M1392 558H1296V654H1392V558Z"/>
</mask>
<path d="M1392 558H1296V654H1392V558Z" fill="#5985C3"/>
<path d="M1296 654V655H1295V654H1296ZM1297 558V654H1295V558H1297ZM1296 653H1392V655H1296V653Z" fill="#5985C3" mask="url(#path-197-inside-98_4077_1779)"/>
<mask id="path-199-inside-99_4077_1779" fill="white">
<path d="M1296 558H1200V654H1296V558Z"/>
</mask>
<path d="M1200 654V655H1199V654H1200ZM1201 558V654H1199V558H1201ZM1200 653H1296V655H1200V653Z" fill="#5985C3" mask="url(#path-199-inside-99_4077_1779)"/>
<mask id="path-201-inside-100_4077_1779" fill="white">
<path d="M1200 558H1104V654H1200V558Z"/>
</mask>
<path d="M1104 654V655H1103V654H1104ZM1105 558V654H1103V558H1105ZM1104 653H1200V655H1104V653Z" fill="#5985C3" mask="url(#path-201-inside-100_4077_1779)"/>
<mask id="path-203-inside-101_4077_1779" fill="white">
<path d="M1104 558H1008V654H1104V558Z"/>
</mask>
<path d="M1008 654V655H1007V654H1008ZM1009 558V654H1007V558H1009ZM1008 653H1104V655H1008V653Z" fill="#5985C3" mask="url(#path-203-inside-101_4077_1779)"/>
<mask id="path-205-inside-102_4077_1779" fill="white">
<path d="M1008 558H912V654H1008V558Z"/>
</mask>
<path d="M912 654V655H911V654H912ZM913 558V654H911V558H913ZM912 653H1008V655H912V653Z" fill="#5985C3" mask="url(#path-205-inside-102_4077_1779)"/>
<mask id="path-207-inside-103_4077_1779" fill="white">
<path d="M912 558H816V654H912V558Z"/>
</mask>
<path d="M816 654V655H815V654H816ZM817 558V654H815V558H817ZM816 653H912V655H816V653Z" fill="#5985C3" mask="url(#path-207-inside-103_4077_1779)"/>
<mask id="path-209-inside-104_4077_1779" fill="white">
<path d="M816 558H720V654H816V558Z"/>
</mask>
<path d="M720 654V655H719V654H720ZM721 558V654H719V558H721ZM720 653H816V655H720V653Z" fill="#5985C3" mask="url(#path-209-inside-104_4077_1779)"/>
<mask id="path-211-inside-105_4077_1779" fill="white">
<path d="M720 558H624V654H720V558Z"/>
</mask>
<path d="M624 654V655H623V654H624ZM625 558V654H623V558H625ZM624 653H720V655H624V653Z" fill="#5985C3" mask="url(#path-211-inside-105_4077_1779)"/>
<mask id="path-213-inside-106_4077_1779" fill="white">
<path d="M624 558H528V654H624V558Z"/>
</mask>
<path d="M528 654V655H527V654H528ZM529 558V654H527V558H529ZM528 653H624V655H528V653Z" fill="#5985C3" mask="url(#path-213-inside-106_4077_1779)"/>
<mask id="path-215-inside-107_4077_1779" fill="white">
<path d="M528 558H432V654H528V558Z"/>
</mask>
<path d="M432 654V655H431V654H432ZM433 558V654H431V558H433ZM432 653H528V655H432V653Z" fill="#5985C3" mask="url(#path-215-inside-107_4077_1779)"/>
<mask id="path-217-inside-108_4077_1779" fill="white">
<path d="M432 558H336V654H432V558Z"/>
</mask>
<path d="M336 654V655H335V654H336ZM337 558V654H335V558H337ZM336 653H432V655H336V653Z" fill="#5985C3" mask="url(#path-217-inside-108_4077_1779)"/>
<mask id="path-219-inside-109_4077_1779" fill="white">
<path d="M336 558H240V654H336V558Z"/>
</mask>
<path d="M240 654V655H239V654H240ZM241 558V654H239V558H241ZM240 653H336V655H240V653Z" fill="#5985C3" mask="url(#path-219-inside-109_4077_1779)"/>
<mask id="path-221-inside-110_4077_1779" fill="white">
<path d="M240 558H144V654H240V558Z"/>
</mask>
<path d="M144 654V655H143V654H144ZM145 558V654H143V558H145ZM144 653H240V655H144V653Z" fill="#5985C3" mask="url(#path-221-inside-110_4077_1779)"/>
<mask id="path-223-inside-111_4077_1779" fill="white">
<path d="M144 558H48V654H144V558Z"/>
</mask>
<path d="M144 558H48V654H144V558Z" fill="#5985C3"/>
<path d="M48 654V655H47V654H48ZM49 558V654H47V558H49ZM48 653H144V655H48V653Z" fill="#5985C3" mask="url(#path-223-inside-111_4077_1779)"/>
<mask id="path-225-inside-112_4077_1779" fill="white">
<path d="M48 558H-48V654H48V558Z"/>
</mask>
<path d="M-48 654V655H-49V654H-48ZM-47 558V654H-49V558H-47ZM-48 653H48V655H-48V653Z" fill="#5985C3" mask="url(#path-225-inside-112_4077_1779)"/>
<mask id="path-227-inside-113_4077_1779" fill="white">
<path d="M1488 654H1392V750H1488V654Z"/>
</mask>
<path d="M1392 750V751H1391V750H1392ZM1393 654V750H1391V654H1393ZM1392 749H1488V751H1392V749Z" fill="#5985C3" mask="url(#path-227-inside-113_4077_1779)"/>
<mask id="path-229-inside-114_4077_1779" fill="white">
<path d="M1392 654H1296V750H1392V654Z"/>
</mask>
<path d="M1296 750V751H1295V750H1296ZM1297 654V750H1295V654H1297ZM1296 749H1392V751H1296V749Z" fill="#5985C3" mask="url(#path-229-inside-114_4077_1779)"/>
<mask id="path-231-inside-115_4077_1779" fill="white">
<path d="M1296 654H1200V750H1296V654Z"/>
</mask>
<path d="M1200 750V751H1199V750H1200ZM1201 654V750H1199V654H1201ZM1200 749H1296V751H1200V749Z" fill="#5985C3" mask="url(#path-231-inside-115_4077_1779)"/>
<mask id="path-233-inside-116_4077_1779" fill="white">
<path d="M1200 654H1104V750H1200V654Z"/>
</mask>
<path d="M1104 750V751H1103V750H1104ZM1105 654V750H1103V654H1105ZM1104 749H1200V751H1104V749Z" fill="#5985C3" mask="url(#path-233-inside-116_4077_1779)"/>
<mask id="path-235-inside-117_4077_1779" fill="white">
<path d="M1104 654H1008V750H1104V654Z"/>
</mask>
<path d="M1008 750V751H1007V750H1008ZM1009 654V750H1007V654H1009ZM1008 749H1104V751H1008V749Z" fill="#5985C3" mask="url(#path-235-inside-117_4077_1779)"/>
<mask id="path-237-inside-118_4077_1779" fill="white">
<path d="M1008 654H912V750H1008V654Z"/>
</mask>
<path d="M912 750V751H911V750H912ZM913 654V750H911V654H913ZM912 749H1008V751H912V749Z" fill="#5985C3" mask="url(#path-237-inside-118_4077_1779)"/>
<mask id="path-239-inside-119_4077_1779" fill="white">
<path d="M912 654H816V750H912V654Z"/>
</mask>
<path d="M912 654H816V750H912V654Z" fill="#5985C3"/>
<path d="M816 750V751H815V750H816ZM817 654V750H815V654H817ZM816 749H912V751H816V749Z" fill="#5985C3" mask="url(#path-239-inside-119_4077_1779)"/>
<mask id="path-241-inside-120_4077_1779" fill="white">
<path d="M816 654H720V750H816V654Z"/>
</mask>
<path d="M720 750V751H719V750H720ZM721 654V750H719V654H721ZM720 749H816V751H720V749Z" fill="#5985C3" mask="url(#path-241-inside-120_4077_1779)"/>
<mask id="path-243-inside-121_4077_1779" fill="white">
<path d="M720 654H624V750H720V654Z"/>
</mask>
<path d="M624 750V751H623V750H624ZM625 654V750H623V654H625ZM624 749H720V751H624V749Z" fill="#5985C3" mask="url(#path-243-inside-121_4077_1779)"/>
<mask id="path-245-inside-122_4077_1779" fill="white">
<path d="M624 654H528V750H624V654Z"/>
</mask>
<path d="M528 750V751H527V750H528ZM529 654V750H527V654H529ZM528 749H624V751H528V749Z" fill="#5985C3" mask="url(#path-245-inside-122_4077_1779)"/>
<mask id="path-247-inside-123_4077_1779" fill="white">
<path d="M528 654H432V750H528V654Z"/>
</mask>
<path d="M432 750V751H431V750H432ZM433 654V750H431V654H433ZM432 749H528V751H432V749Z" fill="#5985C3" mask="url(#path-247-inside-123_4077_1779)"/>
<mask id="path-249-inside-124_4077_1779" fill="white">
<path d="M432 654H336V750H432V654Z"/>
</mask>
<path d="M336 750V751H335V750H336ZM337 654V750H335V654H337ZM336 749H432V751H336V749Z" fill="#5985C3" mask="url(#path-249-inside-124_4077_1779)"/>
<mask id="path-251-inside-125_4077_1779" fill="white">
<path d="M336 654H240V750H336V654Z"/>
</mask>
<path d="M336 654H240V750H336V654Z" fill="#5985C3"/>
<path d="M240 750V751H239V750H240ZM241 654V750H239V654H241ZM240 749H336V751H240V749Z" fill="#5985C3" mask="url(#path-251-inside-125_4077_1779)"/>
<mask id="path-253-inside-126_4077_1779" fill="white">
<path d="M240 654H144V750H240V654Z"/>
</mask>
<path d="M144 750V751H143V750H144ZM145 654V750H143V654H145ZM144 749H240V751H144V749Z" fill="#5985C3" mask="url(#path-253-inside-126_4077_1779)"/>
<mask id="path-255-inside-127_4077_1779" fill="white">
<path d="M144 654H48V750H144V654Z"/>
</mask>
<path d="M48 750V751H47V750H48ZM49 654V750H47V654H49ZM48 749H144V751H48V749Z" fill="#5985C3" mask="url(#path-255-inside-127_4077_1779)"/>
<mask id="path-257-inside-128_4077_1779" fill="white">
<path d="M48 654H-48V750H48V654Z"/>
</mask>
<path d="M-48 750V751H-49V750H-48ZM-47 654V750H-49V654H-47ZM-48 749H48V751H-48V749Z" fill="#5985C3" mask="url(#path-257-inside-128_4077_1779)"/>
<mask id="path-259-inside-129_4077_1779" fill="white">
<path d="M1488 750H1392V846H1488V750Z"/>
</mask>
<path d="M1392 846V847H1391V846H1392ZM1393 750V846H1391V750H1393ZM1392 845H1488V847H1392V845Z" fill="#5985C3" mask="url(#path-259-inside-129_4077_1779)"/>
<mask id="path-261-inside-130_4077_1779" fill="white">
<path d="M1392 750H1296V846H1392V750Z"/>
</mask>
<path d="M1296 846V847H1295V846H1296ZM1297 750V846H1295V750H1297ZM1296 845H1392V847H1296V845Z" fill="#5985C3" mask="url(#path-261-inside-130_4077_1779)"/>
<mask id="path-263-inside-131_4077_1779" fill="white">
<path d="M1296 750H1200V846H1296V750Z"/>
</mask>
<path d="M1200 846V847H1199V846H1200ZM1201 750V846H1199V750H1201ZM1200 845H1296V847H1200V845Z" fill="#5985C3" mask="url(#path-263-inside-131_4077_1779)"/>
<mask id="path-265-inside-132_4077_1779" fill="white">
<path d="M1200 750H1104V846H1200V750Z"/>
</mask>
<path d="M1200 750H1104V846H1200V750Z" fill="#5985C3"/>
<path d="M1104 846V847H1103V846H1104ZM1105 750V846H1103V750H1105ZM1104 845H1200V847H1104V845Z" fill="#5985C3" mask="url(#path-265-inside-132_4077_1779)"/>
<mask id="path-267-inside-133_4077_1779" fill="white">
<path d="M1104 750H1008V846H1104V750Z"/>
</mask>
<path d="M1008 846V847H1007V846H1008ZM1009 750V846H1007V750H1009ZM1008 845H1104V847H1008V845Z" fill="#5985C3" mask="url(#path-267-inside-133_4077_1779)"/>
<mask id="path-269-inside-134_4077_1779" fill="white">
<path d="M1008 750H912V846H1008V750Z"/>
</mask>
<path d="M912 846V847H911V846H912ZM913 750V846H911V750H913ZM912 845H1008V847H912V845Z" fill="#5985C3" mask="url(#path-269-inside-134_4077_1779)"/>
<mask id="path-271-inside-135_4077_1779" fill="white">
<path d="M912 750H816V846H912V750Z"/>
</mask>
<path d="M816 846V847H815V846H816ZM817 750V846H815V750H817ZM816 845H912V847H816V845Z" fill="#5985C3" mask="url(#path-271-inside-135_4077_1779)"/>
<mask id="path-273-inside-136_4077_1779" fill="white">
<path d="M816 750H720V846H816V750Z"/>
</mask>
<path d="M720 846V847H719V846H720ZM721 750V846H719V750H721ZM720 845H816V847H720V845Z" fill="#5985C3" mask="url(#path-273-inside-136_4077_1779)"/>
<mask id="path-275-inside-137_4077_1779" fill="white">
<path d="M720 750H624V846H720V750Z"/>
</mask>
<path d="M624 846V847H623V846H624ZM625 750V846H623V750H625ZM624 845H720V847H624V845Z" fill="#5985C3" mask="url(#path-275-inside-137_4077_1779)"/>
<mask id="path-277-inside-138_4077_1779" fill="white">
<path d="M624 750H528V846H624V750Z"/>
</mask>
<path d="M624 750H528V846H624V750Z" fill="#5985C3"/>
<path d="M528 846V847H527V846H528ZM529 750V846H527V750H529ZM528 845H624V847H528V845Z" fill="#5985C3" mask="url(#path-277-inside-138_4077_1779)"/>
<mask id="path-279-inside-139_4077_1779" fill="white">
<path d="M528 750H432V846H528V750Z"/>
</mask>
<path d="M432 846V847H431V846H432ZM433 750V846H431V750H433ZM432 845H528V847H432V845Z" fill="#5985C3" mask="url(#path-279-inside-139_4077_1779)"/>
<mask id="path-281-inside-140_4077_1779" fill="white">
<path d="M432 750H336V846H432V750Z"/>
</mask>
<path d="M336 846V847H335V846H336ZM337 750V846H335V750H337ZM336 845H432V847H336V845Z" fill="#5985C3" mask="url(#path-281-inside-140_4077_1779)"/>
<mask id="path-283-inside-141_4077_1779" fill="white">
<path d="M336 750H240V846H336V750Z"/>
</mask>
<path d="M240 846V847H239V846H240ZM241 750V846H239V750H241ZM240 845H336V847H240V845Z" fill="#5985C3" mask="url(#path-283-inside-141_4077_1779)"/>
<mask id="path-285-inside-142_4077_1779" fill="white">
<path d="M240 750H144V846H240V750Z"/>
</mask>
<path d="M144 846V847H143V846H144ZM145 750V846H143V750H145ZM144 845H240V847H144V845Z" fill="#5985C3" mask="url(#path-285-inside-142_4077_1779)"/>
<mask id="path-287-inside-143_4077_1779" fill="white">
<path d="M144 750H48V846H144V750Z"/>
</mask>
<path d="M48 846V847H47V846H48ZM49 750V846H47V750H49ZM48 845H144V847H48V845Z" fill="#5985C3" mask="url(#path-287-inside-143_4077_1779)"/>
<mask id="path-289-inside-144_4077_1779" fill="white">
<path d="M48 750H-48V846H48V750Z"/>
</mask>
<path d="M-48 846V847H-49V846H-48ZM-47 750V846H-49V750H-47ZM-48 845H48V847H-48V845Z" fill="#5985C3" mask="url(#path-289-inside-144_4077_1779)"/>
<mask id="path-291-inside-145_4077_1779" fill="white">
<path d="M1488 846H1392V942H1488V846Z"/>
</mask>
<path d="M1392 942V943H1391V942H1392ZM1393 846V942H1391V846H1393ZM1392 941H1488V943H1392V941Z" fill="#5985C3" mask="url(#path-291-inside-145_4077_1779)"/>
<mask id="path-293-inside-146_4077_1779" fill="white">
<path d="M1392 846H1296V942H1392V846Z"/>
</mask>
<path d="M1296 942V943H1295V942H1296ZM1297 846V942H1295V846H1297ZM1296 941H1392V943H1296V941Z" fill="#5985C3" mask="url(#path-293-inside-146_4077_1779)"/>
<mask id="path-295-inside-147_4077_1779" fill="white">
<path d="M1296 846H1200V942H1296V846Z"/>
</mask>
<path d="M1200 942V943H1199V942H1200ZM1201 846V942H1199V846H1201ZM1200 941H1296V943H1200V941Z" fill="#5985C3" mask="url(#path-295-inside-147_4077_1779)"/>
<mask id="path-297-inside-148_4077_1779" fill="white">
<path d="M1200 846H1104V942H1200V846Z"/>
</mask>
<path d="M1104 942V943H1103V942H1104ZM1105 846V942H1103V846H1105ZM1104 941H1200V943H1104V941Z" fill="#5985C3" mask="url(#path-297-inside-148_4077_1779)"/>
<mask id="path-299-inside-149_4077_1779" fill="white">
<path d="M1104 846H1008V942H1104V846Z"/>
</mask>
<path d="M1008 942V943H1007V942H1008ZM1009 846V942H1007V846H1009ZM1008 941H1104V943H1008V941Z" fill="#5985C3" mask="url(#path-299-inside-149_4077_1779)"/>
<mask id="path-301-inside-150_4077_1779" fill="white">
<path d="M1008 846H912V942H1008V846Z"/>
</mask>
<path d="M912 942V943H911V942H912ZM913 846V942H911V846H913ZM912 941H1008V943H912V941Z" fill="#5985C3" mask="url(#path-301-inside-150_4077_1779)"/>
<mask id="path-303-inside-151_4077_1779" fill="white">
<path d="M912 846H816V942H912V846Z"/>
</mask>
<path d="M816 942V943H815V942H816ZM817 846V942H815V846H817ZM816 941H912V943H816V941Z" fill="#5985C3" mask="url(#path-303-inside-151_4077_1779)"/>
<mask id="path-305-inside-152_4077_1779" fill="white">
<path d="M816 846H720V942H816V846Z"/>
</mask>
<path d="M720 942V943H719V942H720ZM721 846V942H719V846H721ZM720 941H816V943H720V941Z" fill="#5985C3" mask="url(#path-305-inside-152_4077_1779)"/>
<mask id="path-307-inside-153_4077_1779" fill="white">
<path d="M720 846H624V942H720V846Z"/>
</mask>
<path d="M624 942V943H623V942H624ZM625 846V942H623V846H625ZM624 941H720V943H624V941Z" fill="#5985C3" mask="url(#path-307-inside-153_4077_1779)"/>
<mask id="path-309-inside-154_4077_1779" fill="white">
<path d="M624 846H528V942H624V846Z"/>
</mask>
<path d="M528 942V943H527V942H528ZM529 846V942H527V846H529ZM528 941H624V943H528V941Z" fill="#5985C3" mask="url(#path-309-inside-154_4077_1779)"/>
<mask id="path-311-inside-155_4077_1779" fill="white">
<path d="M528 846H432V942H528V846Z"/>
</mask>
<path d="M432 942V943H431V942H432ZM433 846V942H431V846H433ZM432 941H528V943H432V941Z" fill="#5985C3" mask="url(#path-311-inside-155_4077_1779)"/>
<mask id="path-313-inside-156_4077_1779" fill="white">
<path d="M432 846H336V942H432V846Z"/>
</mask>
<path d="M336 942V943H335V942H336ZM337 846V942H335V846H337ZM336 941H432V943H336V941Z" fill="#5985C3" mask="url(#path-313-inside-156_4077_1779)"/>
<mask id="path-315-inside-157_4077_1779" fill="white">
<path d="M336 846H240V942H336V846Z"/>
</mask>
<path d="M240 942V943H239V942H240ZM241 846V942H239V846H241ZM240 941H336V943H240V941Z" fill="#5985C3" mask="url(#path-315-inside-157_4077_1779)"/>
<mask id="path-317-inside-158_4077_1779" fill="white">
<path d="M240 846H144V942H240V846Z"/>
</mask>
<path d="M144 942V943H143V942H144ZM145 846V942H143V846H145ZM144 941H240V943H144V941Z" fill="#5985C3" mask="url(#path-317-inside-158_4077_1779)"/>
<mask id="path-319-inside-159_4077_1779" fill="white">
<path d="M144 846H48V942H144V846Z"/>
</mask>
<path d="M48 942V943H47V942H48ZM49 846V942H47V846H49ZM48 941H144V943H48V941Z" fill="#5985C3" mask="url(#path-319-inside-159_4077_1779)"/>
<mask id="path-321-inside-160_4077_1779" fill="white">
<path d="M48 846H-48V942H48V846Z"/>
</mask>
<path d="M48 846H-48V942H48V846Z" fill="#5985C3"/>
<path d="M-48 942V943H-49V942H-48ZM-47 846V942H-49V846H-47ZM-48 941H48V943H-48V941Z" fill="#5985C3" mask="url(#path-321-inside-160_4077_1779)"/>
</g>
<rect x="-0.5" y="0.5" width="1919" height="1439" transform="matrix(-1 0 0 1 1679 -18)" stroke="#5985C3"/>
</g>
</g>
</g>
<defs>
<radialGradient id="paint0_radial_4077_1779" cx="0" cy="0" r="1" gradientUnits="userSpaceOnUse" gradientTransform="translate(720 -0.000134707) rotate(90) scale(1130 751.588)">
<stop/>
<stop offset="0.953125" stop-opacity="0"/>
</radialGradient>
<clipPath id="clip0_4077_1779">
<rect width="1440" height="864" fill="white"/>
</clipPath>
<clipPath id="clip1_4077_1779">
<rect width="1440" height="899" fill="white" transform="matrix(-1 0 0 1 1440 -18)"/>
</clipPath>
<clipPath id="clip2_4077_1779">
<rect width="1920" height="1440" transform="matrix(-1 0 0 1 1680 -18)" fill="white"/>
</clipPath>
</defs>
</svg>
