<svg width="21" height="20" viewBox="0 0 21 20" fill="none" xmlns="http://www.w3.org/2000/svg">
<path fill-rule="evenodd" clip-rule="evenodd" d="M10.6176 0C9.02632 0 7.5002 0.632141 6.37498 1.75736C5.24976 2.88258 4.61762 4.4087 4.61762 6V7.875L3.71762 7.2C3.61256 7.12121 3.49301 7.06388 3.3658 7.03129C3.23859 6.99869 3.1062 6.99148 2.9762 7.01005C2.8462 7.02862 2.72112 7.07262 2.60813 7.13953C2.49513 7.20643 2.39641 7.29494 2.31762 7.4C2.23883 7.50506 2.1815 7.62461 2.14891 7.75182C2.11631 7.87903 2.1091 8.01142 2.12767 8.14142C2.14624 8.27142 2.19024 8.39649 2.25714 8.50949C2.32405 8.62249 2.41256 8.72121 2.51762 8.8L4.38362 10.2C3.93962 11.368 2.85662 12.59 1.10362 13.643C0.988637 13.7136 0.888958 13.8065 0.810469 13.9162C0.731979 14.0259 0.676269 14.1503 0.646627 14.2819C0.616986 14.4135 0.614013 14.5497 0.637885 14.6825C0.661758 14.8153 0.711991 14.942 0.785619 15.055C1.90362 16.732 3.67762 18 5.61762 18C7.40162 18 8.62462 20 10.6176 20C12.6286 20 13.8266 18 15.6176 18C17.5576 18 19.3316 16.732 20.4496 15.055C20.5232 14.942 20.5735 14.8153 20.5974 14.6825C20.6212 14.5497 20.6183 14.4135 20.5886 14.2819C20.559 14.1503 20.5033 14.0259 20.4248 13.9162C20.3463 13.8065 20.2466 13.7136 20.1316 13.643C18.3786 12.59 17.2956 11.368 16.8516 10.2L18.7176 8.8C18.9298 8.64087 19.0701 8.40397 19.1076 8.14142C19.1451 7.87887 19.0767 7.61217 18.9176 7.4C18.7585 7.18783 18.5216 7.04756 18.259 7.01005C17.9965 6.97254 17.7298 7.04087 17.5176 7.2L16.6176 7.875V6C16.6176 4.4087 15.9855 2.88258 14.8603 1.75736C13.735 0.632141 12.2089 0 10.6176 0Z" fill="white"/>
</svg>
