<svg width="19" height="20" viewBox="0 0 19 20" fill="none" xmlns="http://www.w3.org/2000/svg">
<path d="M14.4355 3.13333C13.6762 2.26614 13.2576 1.15267 13.2577 0H9.82439V13.7778C9.79846 14.5235 9.48386 15.2301 8.94696 15.7483C8.41005 16.2666 7.69283 16.556 6.94661 16.5556C5.36884 16.5556 4.05773 15.2667 4.05773 13.6667C4.05773 11.7556 5.90217 10.3222 7.80217 10.9111V7.4C3.96884 6.88889 0.613281 9.86667 0.613281 13.6667C0.613281 17.3667 3.67995 20 6.9355 20C10.4244 20 13.2577 17.1667 13.2577 13.6667V6.67778C14.6499 7.67761 16.3215 8.21405 18.0355 8.21111V4.77778C18.0355 4.77778 15.9466 4.87778 14.4355 3.13333Z" fill="white"/>
</svg>
