<svg width="29" height="20" viewBox="0 0 29 20" fill="none" xmlns="http://www.w3.org/2000/svg">
<path d="M11.4791 14.2857L18.8934 10L11.4791 5.71429V14.2857ZM27.9934 3.1C28.1791 3.77143 28.3077 4.67143 28.3934 5.81429C28.4934 6.95714 28.5362 7.94286 28.5362 8.8L28.6219 10C28.6219 13.1286 28.3934 15.4286 27.9934 16.9C27.6362 18.1857 26.8076 19.0143 25.5219 19.3714C24.8505 19.5571 23.6219 19.6857 21.7362 19.7714C19.8791 19.8714 18.1791 19.9143 16.6077 19.9143L14.3362 20C8.35051 20 4.62194 19.7714 3.15051 19.3714C1.86479 19.0143 1.03622 18.1857 0.679078 16.9C0.493364 16.2286 0.364792 15.3286 0.279078 14.1857C0.179078 13.0429 0.136221 12.0571 0.136221 11.2L0.0505066 10C0.0505066 6.87143 0.279078 4.57143 0.679078 3.1C1.03622 1.81429 1.86479 0.985714 3.15051 0.628572C3.82194 0.442857 5.05051 0.314286 6.93622 0.228571C8.79336 0.128571 10.4934 0.0857142 12.0648 0.0857142L14.3362 0C20.3219 0 24.0505 0.228572 25.5219 0.628572C26.8076 0.985714 27.6362 1.81429 27.9934 3.1Z" fill="white"/>
</svg>
